<?xml version="1.0" encoding="UTF-8" standalone="no"?>
<!-- Created with Inkscape (http://www.inkscape.org/) -->

<svg
   version="1.1"
   id="svg2"
   width="327.67999"
   height="327.67999"
   viewBox="0 0 327.67999 327.67999"
   sodipodi:docname="Keymeleon.svg"
   inkscape:version="1.2.1 (9c6d41e410, 2022-07-14)"
   inkscape:export-filename="Keymeleon.png"
   inkscape:export-xdpi="75"
   inkscape:export-ydpi="75"
   xmlns:inkscape="http://www.inkscape.org/namespaces/inkscape"
   xmlns:sodipodi="http://sodipodi.sourceforge.net/DTD/sodipodi-0.dtd"
   xmlns="http://www.w3.org/2000/svg"
   xmlns:svg="http://www.w3.org/2000/svg">
  <defs
     id="defs6" />
  <sodipodi:namedview
     id="namedview4"
     pagecolor="#505050"
     bordercolor="#eeeeee"
     borderopacity="1"
     inkscape:showpageshadow="0"
     inkscape:pageopacity="0"
     inkscape:pagecheckerboard="0"
     inkscape:deskcolor="#505050"
     showgrid="false"
     inkscape:zoom="1.8601259"
     inkscape:cx="119.07796"
     inkscape:cy="104.29402"
     inkscape:window-width="1920"
     inkscape:window-height="1017"
     inkscape:window-x="1072"
     inkscape:window-y="502"
     inkscape:window-maximized="1"
     inkscape:current-layer="g8" />
  <g
     inkscape:groupmode="layer"
     inkscape:label="Image"
     id="g8"
     style="display:inline">
    <ellipse
       style="opacity:1;fill:#ffffff;fill-opacity:1"
       id="path4792"
       cx="202.40565"
       cy="83.32769"
       rx="28.223896"
       ry="27.148701"
       inkscape:label="eye" />
    <path
       id="path1164"
       style="display:inline;opacity:1;fill:#fe0000;fill-opacity:1"
       inkscape:label="1"
       d="M 272.7168 73.748047 L 279.4082 147.70312 C 289.46038 145.87722 295.65918 135.15914 293.89258 125.21875 C 291.72395 112.33499 286.29996 100.24796 281.11914 88.640625 C 278.5281 83.592485 275.7054 78.620985 272.7168 73.748047 z " />
    <path
       id="path1166"
       style="display:inline;opacity:1;fill:#e60000;fill-opacity:1"
       inkscape:label="2"
       d="M 158.92188 4.7519531 L 182.66016 67.75 C 183.83307 65.999608 185.17845 64.352193 186.88086 62.976562 C 195.97554 55.255293 209.59817 55.28555 218.56055 63.191406 C 232.24919 75.139328 213.67358 64.254329 207.50586 71.691406 C 205.23459 73.479017 203.9274 75.562281 203.28711 77.724609 L 226.84766 87.242188 L 273.53516 148.97656 C 274.85963 148.73356 276.1642 148.40612 277.43945 147.94727 C 278.30644 147.89369 279.13914 147.75341 279.95508 147.57617 L 273.33594 74.765625 C 268.48206 66.733488 263.07708 59.016949 256.65039 52.160156 C 245.44651 39.955811 232.5489 29.372528 217.75977 22.080078 C 199.4458 12.234007 179.19457 7.1764825 158.92188 4.7519531 z " />
    <path
       id="path1542"
       style="display:inline;opacity:1;fill:#ff5a00;stroke-width:0.32;fill-opacity:1"
       inkscape:label="3"
       d="m 226.32812,85.34375 -13.56445,8.96875 c 3.80262,1.422121 8.14983,1.185813 12.04102,-1.894531 -4.09409,7.594411 -11.53885,13.088751 -20.00391,13.822261 -2.84352,0.33075 -5.59869,-0.01 -8.23047,-0.76757 l 15.00391,40.92187 c 11.62533,0.30048 23.24743,0.87349 34.85156,1.44531 8.97894,0.17957 18.87215,2.84538 27.75,0.99219 z" />
    <path
       id="path1579"
       style="display:inline;opacity:1;fill:#ff7a01;fill-opacity:1"
       d="m 151.09375,2.8945312 c -11.39953,-1.1235629 -10.02968,14.6786158 -9.33398,24.3925778 5.6711,17.888783 -12.12776,15.545316 -23.85938,16.873047 -2.66135,0.432936 -5.30854,0.92036 -7.95508,1.416016 l 93.72461,100.714848 c 2.74223,0.037 5.4843,0.0353 8.22656,0.10742 l -15.08007,-40.85352 c -6.15282,-1.69625 -11.57225,-5.945845 -15.35352,-11.144529 -4.17207,-8.391288 -3.93967,-19.014304 1.2168,-26.681641 L 159.18359,4.7851562 C 158.38908,4.6892357 157.59527,4.5683143 156.80078,4.4804688 154.6119,3.562092 152.72225,3.0550402 151.09375,2.8945312 Z"
       inkscape:label="4" />
    <path
       id="path1585"
       style="display:inline;opacity:1;fill:#ff9300;fill-opacity:1"
       d="m 110.74414,45.433594 c -1.54081,0.283865 -3.07929,0.57611 -4.61328,0.888672 l 45.39258,103.525394 c 8.48435,-2.50031 17.5564,-3.27723 26.50586,-3.28125 8.62712,-0.38414 17.26351,-0.39201 25.90039,-0.27149 z"
       inkscape:label="5" />
    <path
       id="path1588"
       style="opacity:1;fill:#fde800;fill-opacity:1"
       d="M 106.4375 46.253906 C 96.539355 48.256404 86.789973 50.885017 77.40625 55.039062 C 70.526903 58.306826 77.163996 67.222552 80.080078 71.447266 C 70.597963 77.354172 61.51917 83.854404 53.164062 91.125 L 143.18359 152.99805 C 145.93936 151.67958 148.8028 150.63939 151.73242 149.78711 L 106.4375 46.253906 z "
       inkscape:label="6" />
    <path
       id="path1591"
       style="opacity:1;fill:#fff260;fill-opacity:1"
       d="M 53.730469 90.65625 C 51.653622 92.447683 49.589677 94.250028 47.609375 96.142578 L 117.08203 192.58789 C 118.30617 179.75418 123.515 166.86229 133.94727 158.7207 C 136.99046 156.28839 140.2475 154.33407 143.65234 152.74805 L 53.730469 90.65625 z "
       inkscape:label="7" />
    <path
       id="path1594"
       style="opacity:1;fill:#c6fa25;fill-opacity:1"
       d="M 48.335938 95.458984 C 46.793751 96.913918 45.274097 98.393302 43.794922 99.912109 C 38.956586 104.55809 30.630468 111.80116 39.841797 117.23438 C 44.647966 120.40465 51.657077 121.98151 44.794922 127.8418 C 39.314678 136.25461 34.840018 145.65719 31.527344 154.81836 C 29.261985 161.36808 26.037736 168.03538 26.898438 174.8418 L 117.27539 201.6875 C 117.04903 199.7965 116.87574 197.89977 116.79883 196 C 116.86331 194.40617 117.00636 192.80472 117.19531 191.20508 L 48.335938 95.458984 z "
       inkscape:label="8" />
    <path
       id="path1597"
       style="opacity:1;fill:#a5f302;fill-opacity:1"
       d="M 26.855469 174.43359 C 26.901745 174.88488 26.914783 175.33457 26.998047 175.78711 C 30.059725 181.05266 37.916099 178.16169 37.560547 183.94922 L 125.11133 227.40234 C 120.95867 219.17286 118.18012 210.14361 117.17383 200.93945 L 26.855469 174.43359 z "
       inkscape:label="9" />
    <path
       id="path1612"
       style="display:inline;opacity:1;fill:#6ce300;stroke-width:0.32;fill-opacity:1"
       inkscape:label="10"
       d="m 37.548828,183.27148 c 0.06204,0.98887 -0.140603,2.25308 -0.755859,3.97071 -0.727025,15.64926 2.181092,30.80538 7.367187,45.07812 3.567182,9.56316 8.366309,18.59451 14.220703,26.90821 L 132.5332,239.17773 c -1.25522,-1.61152 -2.46398,-3.25029 -3.57422,-4.9375 -1.61251,-2.52328 -3.06073,-5.16829 -4.38086,-7.88476 z" />
    <path
       id="path1618"
       style="opacity:1;fill:#2ed401;fill-opacity:1"
       d="M 132.28711 238.87109 L 58.097656 258.83008 C 58.758371 259.7766 59.420929 260.7211 60.109375 261.64844 L 147.49023 253.67969 C 141.71555 249.48832 136.57921 244.43998 132.28711 238.87109 z "
       inkscape:label="11" />
    <path
       id="path1621"
       style="opacity:1;fill:#1ad6b0;fill-opacity:1"
       d="M 147.00586 253.33594 L 59.904297 261.35938 C 62.342758 264.66459 64.939622 267.85963 67.71875 270.9043 C 73.224372 277.79515 80.128435 283.60257 87.039062 288.96094 C 97.143259 296.63042 108.70589 303.31671 120.48047 308.48047 C 127.89722 311.31279 135.32859 313.75369 142.86719 315.67773 L 154.66602 258.27539 C 151.99844 256.81403 149.45131 255.14273 147.00586 253.33594 z "
       inkscape:label="12" />
    <path
       id="path1624"
       style="opacity:1;fill:#00b585;fill-opacity:1"
       d="M 154.39648 258.12695 L 142.62109 315.61523 C 143.72109 315.89782 144.81873 316.19064 145.92383 316.44922 L 185.67578 266.61133 C 176.4804 266.27603 167.4376 264.38133 159.07422 260.48047 C 157.48128 259.76296 155.92352 258.97295 154.39648 258.12695 z "
       inkscape:label="13" />
    <path
       id="path1627"
       style="opacity:1;fill:#438fde;fill-opacity:1"
       d="M 185.3125 266.59766 L 145.64453 316.37891 C 154.67199 318.50906 163.87573 319.8368 173.43945 320 C 183.36269 320.38302 193.85733 319.94393 203.6582 318.0625 L 191.81445 266.60938 C 189.64178 266.69331 187.47391 266.68643 185.3125 266.59766 z "
       inkscape:label="14" />
    <path
       id="path1630"
       style="opacity:1;fill:#0065cd;fill-opacity:1"
       d="M 226.13086 255.78906 C 223.83259 257.52884 221.39898 259.06742 218.93359 260.36523 C 212.27525 263.0794 205.31632 264.50189 198.31641 266.14453 C 196.0554 266.40157 193.79047 266.53748 191.52734 266.61719 L 203.36523 318.12109 C 204.73831 317.86198 206.09706 317.57604 207.43945 317.25781 L 226.13086 255.78906 z "
       inkscape:label="15" />
    <path
       id="path1633"
       style="opacity:1;fill:#1d01ff;fill-opacity:1"
       d="M 232.63672 249.63672 C 230.49065 252.18978 227.98736 254.47059 225.26562 256.43555 L 207.10156 317.3418 C 208.26396 317.07126 209.42554 316.79748 210.56055 316.48047 C 219.15426 314.43016 227.65826 311.9276 235.35938 307.51953 C 243.09484 304.10281 249.45554 299.11627 256 294.08008 C 259.76434 290.56704 263.29673 286.76472 266.51953 282.72266 L 232.63672 249.63672 z "
       inkscape:label="16" />
    <path
       id="path1636"
       style="opacity:1;fill:#5c54ff;fill-opacity:1"
       d="M 239.11133 228.50977 C 239.42565 231.27786 239.3702 234.07838 238.87891 236.80078 C 238.03746 241.83967 235.59799 246.2295 232.33984 250 L 266.22266 283.08594 C 267.37579 281.65443 268.48069 280.18942 269.54297 278.69141 L 239.11133 228.50977 z "
       inkscape:label="17" />
    <path
       id="path1639"
       style="opacity:1;fill:#b16ef2;fill-opacity:1"
       d="M 235.96289 218.02539 C 237.75935 221.57937 238.87408 225.49367 239.19727 229.46094 L 269.19141 279.18359 C 274.30113 272.08366 278.36532 264.25599 280.64062 255.66016 C 284.53126 245.7395 283.10943 232.84605 280.74609 222.7207 C 280.5929 221.72563 280.36652 220.748 280.1543 219.76758 L 235.96289 218.02539 z "
       inkscape:label="18" />
    <path
       id="path1642"
       style="opacity:1;fill:#902bd8;fill-opacity:1"
       d="M 250.58203 182.20312 L 232.25 212.36133 C 233.75277 214.15251 235.03697 216.13851 236.08398 218.25391 L 280.24609 220.22852 C 277.99681 209.34761 272.23018 199.38717 264.49609 191.51953 C 260.33482 187.72898 255.57643 184.67374 250.58203 182.20312 z "
       inkscape:label="19" />
    <path
       id="path1647"
       style="opacity:1;fill:#7200d6;fill-opacity:1"
       d="M 247.91992 180.93945 L 214.11523 203.73047 C 215.82231 203.50838 217.46586 203.46526 218.67969 203.92578 C 224.30265 205.15337 228.99961 208.38515 232.49805 212.67773 L 250.91797 182.36328 C 249.92671 181.86582 248.93046 181.38399 247.91992 180.93945 z "
       inkscape:label="20" />
    <path
       id="path1650"
       style="opacity:1;fill:#f300b6;fill-opacity:1"
       d="M 226.32812 176.03906 C 215.9216 175.59571 205.42297 177.48029 196.47656 182.18359 L 210.41016 204.55078 C 212.11216 204.01131 213.8942 203.60989 215.54102 203.54883 L 248.29688 181.11719 C 245.51914 179.8743 242.70111 178.75811 239.83984 177.91992 C 235.44847 176.87526 230.89745 176.23373 226.32812 176.03906 z "
       inkscape:label="21" />
    <path
       id="path1656"
       style="opacity:1;fill:#fb4dd3;fill-opacity:1"
       d="M 196.84961 181.97852 C 194.29274 183.29363 191.87788 184.86098 189.60742 186.64453 L 181.24219 234.86719 C 184.14565 238.42332 187.93958 241.22623 192.48047 242.56055 C 202.86463 247.00423 216.09894 241.57692 219.19922 230.56055 C 222.40211 223.01607 220.06652 211.77914 211.03906 209.59961 C 199.57943 210.39414 204.66631 206.21379 210.97656 204.38086 L 196.84961 181.97852 z "
       inkscape:label="22" />
    <path
       id="path1653"
       style="display:inline;opacity:1;fill:#fe95e8;fill-opacity:1"
       d="M 190.13867 186.23242 C 189.58201 186.65592 189.01786 187.06773 188.48047 187.51953 C 178.69808 194.94677 173.43534 208.14424 175.19922 220.16016 C 175.68676 225.63712 177.9729 231.00483 181.55664 235.23047 L 190.13867 186.23242 z "
       inkscape:label="23" />
    <ellipse
       style="opacity:1;fill:#000000;fill-opacity:1;stroke-width:1.04722"
       id="path4847"
       cx="217.10699"
       cy="81.06469"
       rx="14.302737"
       ry="14.160185"
       inkscape:label="eyeball" />
  </g>
  <g
     inkscape:groupmode="layer"
     id="layer2"
     inkscape:label="Image 1">
    <path
       style="display:none;opacity:0.581395;fill:#000000;stroke-width:0.32"
       d="m 173.43999,319.99999 c -18.56537,-0.3168 -35.7858,-4.9615 -52.95999,-11.52 -11.77459,-5.16376 -23.335796,-11.85051 -33.440003,-19.52 -6.910634,-5.35837 -13.816518,-11.16547 -19.322146,-18.05633 -10.253083,-11.23272 -18.243959,-24.3378 -23.557852,-38.58367 -5.1861,-14.27276 -8.094538,-29.42845 -7.367513,-45.07773 3.642076,-10.16767 -6.266196,-5.38807 -9.793922,-11.45514 -1.312905,-7.1356 2.158916,-14.11566 4.529267,-20.96894 3.312678,-9.16118 7.787275,-18.56391 13.267524,-26.97673 6.862162,-5.86029 -0.146997,-7.43631 -4.953171,-10.60659 -9.211338,-5.43322 -0.885691,-12.67766 3.95265,-17.323648 C 54.501651,88.917522 66.927762,79.640915 80.080001,71.447696 77.163916,67.222978 70.52641,58.307745 77.405764,55.039978 90.396241,49.289272 104.07471,46.409193 117.90111,44.159979 129.63274,42.832246 147.43026,45.174991 141.75915,27.28619 140.96407,16.184508 139.28895,-2.8670418 156.8,4.4799799 c 20.9791,2.3196339 42.00708,7.4104121 60.95999,17.5999991 14.78915,7.292457 27.68678,17.875642 38.89067,30.079999 10.06882,10.74267 17.80397,23.493837 24.46933,36.479999 5.18082,11.607343 10.60324,23.694573 12.77187,36.578343 1.87937,10.57491 -5.25229,22.03625 -16.45211,22.72833 -9.66197,3.47653 -20.91888,0.0952 -31.01333,-0.10667 -22.76897,-1.122 -45.61307,-2.28906 -68.39763,-1.27453 -15.58179,0.007 -31.59546,2.17422 -44.08236,12.15453 -11.35775,8.86386 -16.58357,23.36061 -17.14667,37.27999 0.54731,13.51804 4.952,26.96086 12.16,38.24 7.26652,11.04277 17.73753,20.6652 30.11423,26.24 12.18214,5.68201 25.79846,7.19306 39.24218,5.66475 6.99992,-1.64264 13.95856,-3.06487 20.61691,-5.77904 9.18852,-4.83699 18.14523,-12.77804 19.94667,-23.56571 2.50031,-13.85487 -5.93325,-29.75941 -20.2,-32.87407 -6.44638,-2.44575 -24.12144,6.81677 -7.64,5.67407 9.02747,2.17953 11.36287,13.41552 8.15998,20.96 -3.10028,11.01638 -16.33583,16.44369 -26.72,12 -9.86458,-2.89866 -16.40275,-12.54503 -17.28,-22.4 -1.76388,-12.01593 3.4976,-25.21275 13.28,-32.64 13.68385,-11.50459 33.79448,-13.77865 51.36,-9.6 8.87388,2.59953 17.58339,7.15714 24.65638,13.6 8.32367,8.4674 14.42498,19.34361 16.25029,31.2 2.36334,10.12536 3.78397,23.02045 -0.10667,32.94112 -4.00355,15.12494 -13.42348,27.95114 -24.64,38.41888 -6.54447,5.0362 -12.90453,10.02328 -20.64,13.44 -7.70112,4.40807 -16.20628,6.90969 -24.8,8.96 -11.63339,3.24926 -24.82497,3.99458 -37.11974,3.52002 z m 31.36,-213.75999 c 8.46507,-0.73352 15.91036,-6.22743 20.00445,-13.821846 -12.80315,10.135226 -30.62116,-10.240945 -17.29837,-20.726716 6.16773,-7.437085 24.74258,3.448182 11.05392,-8.499752 -8.96239,-7.905864 -22.58531,-7.935501 -31.68,-0.214224 -9.15741,7.39964 -10.53512,21.128728 -5.41714,31.422533 5.35332,7.360015 13.95645,12.931135 23.33714,11.840005 z"
       id="path1645"
       inkscape:label="base" />
  </g>
</svg>
